<?xml version="1.0" standalone="no"?>
<!DOCTYPE svg PUBLIC "-//W3C//DTD SVG 20010904//EN"
 "http://www.w3.org/TR/2001/REC-SVG-20010904/DTD/svg10.dtd">
<svg version="1.0" xmlns="http://www.w3.org/2000/svg"
 width="512.000000pt" height="512.000000pt" viewBox="0 0 512.000000 512.000000"
 preserveAspectRatio="xMidYMid meet">

<g transform="translate(0.000000,512.000000) scale(0.100000,-0.100000)"
fill="#000000" stroke="none">
<path d="M1539 4940 c-42 -12 -77 -40 -101 -79 -22 -34 -23 -49 -28 -261 l-5
-225 -220 -80 c-121 -45 -404 -148 -630 -230 -432 -158 -463 -173 -491 -242
-8 -18 -14 -48 -14 -68 0 -41 1169 -3265 1198 -3305 30 -40 91 -70 143 -70 39
0 131 27 252 75 15 6 17 0 17 -52 0 -66 21 -109 73 -147 28 -21 36 -21 860
-27 805 -5 835 -6 917 -27 500 -125 1048 151 1260 636 182 413 99 890 -209
1215 l-71 74 290 796 c180 493 290 809 290 832 0 45 -30 105 -69 137 -16 14
-62 37 -103 52 -40 15 -336 122 -658 240 l-585 213 -5 209 c-5 223 -9 242 -62
291 -59 55 -17 53 -1060 52 -530 0 -975 -4 -989 -9z m1947 -144 c19 -14 19
-40 22 -1214 l4 -1200 -49 -14 -48 -14 -5 1009 -5 1009 -24 19 c-13 11 -39 19
-60 19 -104 1 -211 110 -211 215 0 25 -8 44 -25 60 l-24 25 -517 0 -518 0 -23
-22 c-13 -12 -23 -32 -23 -44 0 -32 -17 -74 -31 -74 -9 0 -182 -62 -386 -138
-10 -3 -13 35 -13 169 0 96 4 179 8 185 4 6 14 14 22 17 8 3 436 6 951 6 793
1 938 -1 955 -13z m-497 -295 c36 -98 129 -187 234 -220 l37 -13 0 -964 0
-964 -161 2 -161 3 -30 79 c-23 63 -26 81 -16 87 43 24 123 98 162 150 165
220 180 519 38 754 -117 193 -354 321 -582 314 l-75 -2 -140 381 c-82 225
-149 392 -163 407 -12 14 -20 30 -17 35 4 6 171 10 429 10 l423 0 22 -59z
m-927 -181 c96 -258 718 -1970 718 -1975 0 -3 -23 -5 -51 -3 l-51 3 -284 780
c-156 429 -291 799 -300 823 -24 63 -50 77 -119 61 -112 -25 -217 26 -270 132
-17 34 -33 51 -51 55 -19 5 -146 -37 -487 -161 -254 -93 -475 -174 -490 -182
-35 -18 -47 -48 -35 -92 17 -61 5 -144 -28 -198 -23 -37 -43 -55 -91 -79 -81
-40 -93 -51 -93 -84 0 -35 867 -2418 888 -2443 14 -16 27 -17 104 -11 104 8
156 -7 205 -59 31 -32 39 -65 43 -192 2 -39 -12 -84 -29 -90 -79 -32 -236 -85
-251 -85 -11 0 -24 9 -29 19 -13 23 -1157 3167 -1166 3202 -4 17 -1 30 9 38
27 23 1760 650 1790 648 27 -2 31 -8 68 -107z m2854 -541 c8 -6 14 -16 14 -21
0 -9 -550 -1530 -556 -1537 -2 -2 -61 29 -82 45 -2 1 87 251 197 554 111 304
201 565 201 581 0 29 -3 32 -94 92 -32 20 -59 48 -74 77 -22 42 -23 52 -18
142 5 85 4 100 -12 115 -9 10 -203 86 -430 168 l-412 150 0 51 0 51 626 -228
c344 -126 632 -233 640 -240z m-3278 202 c61 -71 151 -114 255 -121 l80 -5
273 -750 c150 -412 274 -753 274 -757 0 -5 -49 -8 -110 -8 -60 0 -110 3 -110
8 1 4 7 34 15 67 34 141 10 319 -62 458 -53 103 -181 229 -285 280 -112 54
-190 70 -328 65 -183 -6 -313 -62 -439 -189 -184 -183 -243 -444 -157 -690 34
-97 80 -171 153 -245 107 -108 224 -164 387 -186 45 -6 84 -14 89 -18 4 -4 1
-23 -8 -43 -19 -47 -20 -287 -1 -332 10 -24 10 -36 0 -65 -17 -47 -17 -283 0
-331 8 -23 9 -40 3 -51 -9 -13 -16 -13 -61 4 -28 11 -83 22 -122 25 l-72 6
-403 1106 c-221 608 -405 1116 -407 1128 -2 13 0 23 6 23 6 0 35 23 66 51 77
70 116 152 123 256 l6 79 386 141 c212 78 391 142 396 142 6 1 29 -21 53 -48z
m2438 -148 l272 -98 4 -75 c6 -105 43 -184 118 -254 l58 -53 -183 -502 c-101
-276 -186 -505 -188 -508 -3 -3 -28 2 -55 11 l-49 17 4 92 c13 258 -127 506
-349 618 l-58 29 0 439 0 440 78 -29 c42 -16 199 -73 348 -127z m-1411 -268
c163 -43 304 -178 356 -344 29 -90 28 -222 0 -312 -26 -81 -86 -174 -149 -229
l-46 -41 -12 33 c-6 18 -82 226 -168 462 -86 236 -156 432 -156 437 0 14 111
10 175 -6z m-850 -510 c235 -61 403 -322 366 -565 -6 -39 -18 -88 -27 -109
l-16 -40 -188 -3 c-209 -3 -219 -6 -267 -78 -20 -28 -23 -46 -23 -128 l0 -94
-47 6 c-128 18 -257 86 -333 174 -246 288 -123 717 239 833 71 23 215 25 296
4z m1957 -202 c94 -99 138 -213 138 -359 l0 -93 -130 2 -130 2 0 273 0 273 43
-30 c23 -16 58 -46 79 -68z m160 -607 c181 -35 355 -125 489 -253 568 -543
296 -1492 -476 -1659 -71 -16 -272 -21 -342 -9 -357 61 -656 310 -769 642 -45
132 -58 223 -51 368 8 185 60 346 163 500 137 208 378 365 627 410 97 18 269
18 359 1z m-968 -171 l-126 -125 -519 0 -519 0 0 118 c0 65 3 122 7 125 3 4
293 7 644 7 l638 0 -125 -125z m-214 -285 c0 -6 -7 -25 -17 -43 -9 -18 -28
-68 -43 -112 l-28 -80 -428 0 -429 0 -3 123 -3 122 476 0 c325 0 475 -3 475
-10z m-115 -505 l0 -125 -417 0 -418 0 0 125 0 125 418 0 417 0 0 -125z m45
-312 c6 -27 27 -83 45 -125 l33 -78 -479 0 -479 0 0 125 0 125 434 0 434 0 12
-47z m288 -473 l130 -130 -646 2 -647 3 -3 119 c-2 89 1 121 10 128 7 4 241 8
520 8 l506 0 130 -130z"/>
<path d="M1725 2811 c-52 -23 -102 -81 -111 -127 -4 -20 -4 -70 -1 -110 9
-105 -8 -144 -65 -144 -65 0 -105 115 -56 167 43 46 14 123 -47 123 -55 0
-115 -87 -119 -172 -2 -45 -6 -50 -37 -66 -41 -20 -58 -60 -41 -96 14 -31 54
-42 102 -29 34 9 40 7 74 -23 97 -84 251 -52 307 63 21 42 24 62 24 160 0 61
2 113 5 116 21 19 52 16 74 -7 36 -35 42 -71 23 -124 -20 -54 -8 -91 35 -106
58 -20 104 32 116 131 3 29 10 44 22 48 41 13 70 46 70 79 0 55 -53 81 -115
57 -15 -6 -29 0 -57 24 -39 32 -96 55 -139 55 -13 0 -42 -9 -64 -19z"/>
<path d="M3658 2059 c-246 -27 -478 -187 -591 -407 -54 -105 -74 -168 -88
-283 -45 -371 215 -743 581 -832 199 -49 408 -19 585 85 90 53 220 183 273
273 131 224 143 504 30 730 -150 300 -462 471 -790 434z m285 -168 c196 -69
339 -209 405 -394 33 -95 42 -262 18 -357 -56 -224 -242 -410 -466 -466 -96
-24 -261 -16 -358 19 -241 85 -404 302 -419 558 -18 305 173 569 469 649 96
26 264 22 351 -9z"/>
<path d="M3702 1787 c-16 -17 -22 -36 -22 -69 0 -44 -2 -47 -34 -58 -42 -14
-104 -73 -122 -116 -21 -49 -18 -130 7 -180 31 -65 87 -101 194 -124 134 -29
181 -103 108 -172 -21 -19 -35 -23 -90 -23 -62 0 -66 2 -94 35 -16 19 -36 43
-44 53 -22 25 -62 21 -92 -9 -20 -20 -24 -31 -19 -57 13 -64 85 -138 152 -156
26 -7 30 -12 34 -60 6 -59 26 -81 72 -81 44 0 68 32 68 88 0 46 1 48 37 61 59
22 120 86 139 146 46 143 -46 267 -232 311 -38 10 -79 26 -91 37 -63 56 14
141 110 123 19 -3 49 -20 67 -36 32 -29 48 -35 80 -30 28 4 50 33 50 66 0 41
-51 94 -116 121 -43 18 -44 19 -44 66 0 80 -68 117 -118 64z"/>
</g>
</svg>
